<?xml version="1.0" encoding="UTF-8"?>
<svg id="Group_1046" xmlns="http://www.w3.org/2000/svg" version="1.1" viewBox="0 0 129 50.5">
  <!-- Generator: Adobe Illustrator 29.1.0, SVG Export Plug-In . SVG Version: 2.1.0 Build 142)  -->
  <defs>
    <style>
      .st0 {
        fill: #fff;
      }
    </style>
  </defs>
  <g id="Group_1045">
    <path id="Path_6600" class="st0" d="M11.8,32.7h-2.6v-.3c0-.8-.2-1.3-.5-1.5-.6-.3-1.4-.4-2.1-.3-.8,0-1.7,0-2.5.4-.4.4-.7.9-.6,1.5,0,.9.2,1.4.5,1.6,1,.3,2.1.4,3.2.4,2.1,0,3.5.4,4.1.9.6.5.9,1.5.9,3s-.4,3.1-1.1,3.6-2.3.8-4.8.8-3.7-.3-4.4-.8-1.1-1.6-1.1-3.3v-.5h2.6v.3c0,1,.2,1.6.5,1.8.9.3,1.9.4,2.8.3.8,0,1.6,0,2.3-.4.3-.3.5-.8.5-1.8s0-1-.4-1.4c-.5-.3-1.1-.4-1.6-.4h-1.5c-2.2-.2-3.7-.5-4.3-1s-.9-1.5-.9-3.2.4-2.8,1.1-3.3,2.2-.8,4.5-.8,3.6.3,4.3.8,1.1,1.5,1.1,3v.5h0Z"/>
    <path id="Path_6601" class="st0" d="M22.1,28.4c2.6,0,4.2.4,5,1.3.7.9,1.1,2.8,1.1,5.7s-.4,5.3-1.1,6.1-2.5,1.3-5.4,1.3-4.2-.4-5-1.2c-.8-.8-1.1-2.7-1.1-5.5s.4-5.5,1.1-6.4,2.6-1.3,5.4-1.3M21.9,30.7c-1.8,0-2.9.2-3.2.7-.3.5-.5,2.1-.5,4.8s.2,3.3.5,3.7c.4.4,1.4.6,3.1.6s2.7-.2,3-.7.5-1.9.5-4.2-.2-3.8-.5-4.2-1.3-.6-3.1-.6"/>
    <path id="Path_6602" class="st0" d="M34.8,30.8v3.8h6.3v2.3h-6.3v5.8h-2.7v-14.2h9.4v2.3s-6.7,0-6.7,0Z"/>
    <path id="Path_6603" class="st0" d="M51,31v11.7h-2.7v-11.7h-4.1v-2.4h11v2.4s-4.2,0-4.2,0Z"/>
    <path id="Path_6604" class="st0" d="M78.7,28.6l-3.8,14.2h-4l-2-7.3c-.2-.7-.4-1.5-.6-2.6l-.2-.9h0l-.2.9-.2.9c0,.6-.3,1.2-.5,1.8l-2,7.2h-3.9l-3.7-14.2h2.7l2,7.8c0,.5.3,1.2.5,2.1l.2,1,.2,1h0c0-.5.2-.8.2-1l.2-1c0-.5.3-1.2.5-2.1l2.2-7.8h3.2l2.1,7.8c.2.7.4,1.4.5,2.1l.2,1,.2,1h0l.2-1,.2-1c.2-.8.3-1.5.5-2.1l2.1-7.8h3.2Z"/>
    <path id="Path_6605" class="st0" d="M90.7,40h-6.1l-.9,2.7h-2.8l4.7-14.2h4l4.8,14.2h-2.8s-.9-2.7-.9-2.7ZM90.1,38l-2.4-7.4-2.4,7.4h4.9,0Z"/>
    <path id="Path_6606" class="st0" d="M97.9,42.7v-14.2h7c1.3-.1,2.5.2,3.6.9.8.9,1.1,2.1,1,3.3,0,1,0,2-.5,2.9-.5.6-1.2,1-2,1.1h0c1.6.2,2.4,1.1,2.4,2.8v3.1h-2.7v-2.6c.2-1-.6-2-1.6-2.2h-4.4v4.8h-2.8ZM100.5,35.7h3.9c.7,0,1.3,0,1.8-.5.4-.6.5-1.3.5-2s0-1.4-.4-2c-.5-.4-1.1-.5-1.7-.4h-4v4.9h-.1Z"/>
    <path id="Path_6607" class="st0" d="M116.2,30.8v3.6h6.6v2h-6.6v4h7.1v2.3h-9.7v-14.2h9.7v2.3h-7.1Z"/>
    <path id="Path_6608" class="st0" d="M125.2,6.4c0-.3,0-.7.2-.9.2-.3.4-.5.7-.7.6-.3,1.2-.3,1.8,0,.3.2.5.4.7.7.3.6.3,1.3,0,1.9-.1.3-.4.5-.6.7-.6.3-1.3.3-1.8,0-.3-.2-.5-.4-.6-.7-.2-.3-.2-.6-.2-.9M125.4,6.4c0,.3,0,.6.2.8.1.3.3.5.6.6.5.3,1.1.3,1.6,0,.2,0,.4-.4.6-.6.1-.3.2-.5.2-.8s0-.6-.2-.8c-.1-.3-.3-.5-.6-.6-.5-.3-1.1-.3-1.6,0-.2,0-.4.4-.6.6-.1.3-.2.5-.2.8M126.6,6.6v.9h-.3v-2.1h.7c.2,0,.4,0,.6.2s.2.3.2.5-.1.4-.4.5c.1,0,.2,0,.3.2v.6h0c0,0-.3,0-.3,0v-.8s-.2,0-.3,0h-.5ZM126.6,6.4h.5c.1,0,.2,0,.3,0,0,0,.1-.2.1-.3s0-.2-.1-.3c-.1,0-.2,0-.4,0h-.4v.8h0Z"/>
    <path id="Path_6609" class="st0" d="M.9,24.8V4.5h10c2.5,0,4.2.4,5.2,1.3.9.9,1.4,2.4,1.4,4.7.1,1.4-.1,2.9-.7,4.2-.7.9-1.8,1.5-2.9,1.6h0c2.3.3,3.4,1.6,3.4,4.1v4.5h-3.9v-3.7c0-2.1-1-3.1-3.1-3.1h-5.6v6.9H.8v-.2ZM4.8,14.7h5.5c.9.1,1.9-.1,2.6-.7.5-.8.8-1.8.6-2.8.1-1,0-2-.6-2.8-.7-.5-1.6-.8-2.5-.6h-5.8v7h.2Z"/>
    <rect id="Rectangle_558" class="st0" x="20.6" y="4.5" width="3.9" height="20.3"/>
    <path id="Path_6610" class="st0" d="M43.1,10.4h-3.8v-.4c0-1.1-.3-1.9-.8-2.2-.9-.4-1.9-.5-2.9-.4-1.2,0-2.4,0-3.6.5-.6.5-1,1.3-.8,2.1,0,1.3.2,2.1.7,2.3,1.5.4,3,.6,4.5.6,3,.2,5,.6,5.9,1.3s1.3,2.1,1.3,4.3-.5,4.4-1.6,5.2-3.3,1.2-6.9,1.2-5.3-.4-6.4-1.2-1.6-2.3-1.6-4.7v-.7h3.7v.4c0,1.4.3,2.3.8,2.6s1.9.5,4.1.5c1.1.1,2.3,0,3.3-.6.5-.4.7-1.2.7-2.5s0-1.4-.5-2c-.7-.4-1.5-.6-2.3-.6h-2.1c-3.2-.3-5.3-.8-6.2-1.5s-1.3-2.2-1.3-4.5.5-4,1.6-4.7,3.2-1.2,6.5-1.2,5.1.4,6.2,1.1,1.6,2.1,1.6,4.2v.8h-.1Z"/>
    <path id="Path_6611" class="st0" d="M63.5,4.5v20.3h-3.9v-8.8h-9.5v8.8h-3.9V4.5h3.9v8.3h9.5V4.5h3.9Z"/>
    <path id="Path_6612" class="st0" d="M79.4,20.9h-8.8l-1.3,3.9h-4.1l6.8-20.3h5.8l6.9,20.3h-4l-1.3-3.9ZM78.5,18.1l-3.5-10.6-3.5,10.6h7Z"/>
    <path id="Path_6613" class="st0" d="M86.5,24.8V4.5h10c2.3,0,3.9.4,4.8,1.1.8.8,1.3,2.2,1.3,4.2s-1,4-3,4.4h0c2.3.4,3.5,2,3.5,4.9s-.4,3.5-1.3,4.4c-.9.8-2.5,1.3-4.7,1.3h-10.6ZM90.3,13h4.7c1,.1,2,0,2.9-.5.4-.3.6-1.1.6-2.3s-.9-2.4-2.8-2.4h-5.5v5.3h.1ZM90.3,21.6h5.6c.9,0,1.8-.1,2.6-.6.5-.7.7-1.5.6-2.3,0-1.2-.2-2-.6-2.3-1-.4-2.1-.6-3.2-.5h-4.9v5.7h0Z"/>
    <path id="Path_6614" class="st0" d="M123.1,4.5v20.3h-3.9v-8.8h-9.5v8.8h-3.9V4.5h3.9v8.3h9.5V4.5h3.9Z"/>
  </g>
</svg>